<?xml version="1.0" standalone="no"?>
<!DOCTYPE svg PUBLIC "-//W3C//DTD SVG 1.1//EN" "http://www.w3.org/Graphics/SVG/1.1/DTD/svg11.dtd" >
<svg>
<metadata>
Created by FontForge 20110222 at Mon Mar  7 04:35:25 2011
 By www-data
Imperator Bold (C) Copyright PJL '96
</metadata>
<defs>
<font id="ImperatorSmallCaps-Bold" horiz-adv-x="624" >
  <font-face 
    font-family="ImperatorSmallCaps"
    font-weight="700"
    font-variant="small-caps"
    font-stretch="normal"
    units-per-em="1000"
    panose-1="2 2 8 0 0 0 0 0 0 0"
    ascent="800"
    descent="-200"
    x-height="582"
    cap-height="834"
    bbox="16 -242 1486 850"
    underline-thickness="50"
    underline-position="-100"
    unicode-range="U+0020-201D"
  />
    <missing-glyph />
    <glyph glyph-name="space" unicode=" " horiz-adv-x="500" 
 />
    <glyph glyph-name="space" unicode="&#xa0;" horiz-adv-x="500" 
 />
    <glyph glyph-name="exclam" unicode="!" horiz-adv-x="205" 
d="M122 138q-16 0 -34 -5.5t-33.5 -15t-25 -21.5t-9.5 -24q0 -27 18.5 -48.5t52.5 -21.5t64 22.5t30 46.5q0 30 -13.5 48.5t-49.5 18.5zM102 168q17 0 29.5 10.5t12.5 20.5q0 16 6 70q8 85 13.5 168t5.5 193q0 71 -1 101.5t-6 46.5t-15.5 21t-32.5 5q-25 0 -40 -15
t-21.5 -39.5t-8 -51.5t-1.5 -68q0 -107 4.5 -191.5t10.5 -165.5q5 -61 5 -78q0 -9 11 -18t28 -9z" />
    <glyph glyph-name="quotedbl" unicode="&#x22;" horiz-adv-x="314" 
d="M20 834l6 -83q2 -20 17.5 -35.5t43.5 -15.5q25 0 42.5 14.5t19.5 31.5l7 87q-27 -6 -43 -8t-26 -2q-12 0 -26.5 2t-40.5 9zM158 834l6 -83q2 -20 18 -35.5t44 -15.5q25 0 42 15t19 31l7 87q-27 -6 -42.5 -8t-25.5 -2q-13 0 -27.5 2t-40.5 9z" />
    <glyph glyph-name="dollar" unicode="$" horiz-adv-x="394" 
d="M195 588l-10 -92q-74 -11 -114.5 -51.5t-40.5 -91.5q0 -30 12.5 -54t31.5 -40.5t38.5 -27t43.5 -20.5l-15 -146q-20 8 -40 25q-3 3 -9 13q-9 16 -18 25.5t-22 9.5q-10 0 -19.5 -6t-9.5 -10q0 -16 -1 -42q-2 -30 -2 -41q0 -17 34 -28t80 -16l-7 -74h79l8 74q30 5 58 16.5
t51 30t36.5 46.5t13.5 63q0 29 -12.5 52.5t-31.5 40t-40 28.5t-45 22l14 133q8 -4 18 -12q5 -3 16 -16q12 -14 22 -21.5t22 -7.5q15 0 20.5 5t5.5 12v67q0 17 -30 29.5t-67 16.5l9 88h-79zM251 116q0 -18 -8.5 -31.5t-21.5 -20.5l10 103q20 -20 20 -51zM153 381q0 34 25 52
l-10 -94q-15 18 -15 42z" />
    <glyph glyph-name="percent" unicode="%" horiz-adv-x="642" 
d="M450 416q-58 0 -103 -32l263 418h-53q-24 0 -45 -4.5t-48 -13.5q-39 -12 -57 -12q-31 0 -88 15q-33 9 -58.5 14t-56.5 5q-84 0 -134 -59t-50 -145q0 -44 9.5 -83t29.5 -70t52.5 -49t76.5 -18q64 0 111 38l-265 -421h69l169 267q-6 -25 -6 -54q0 -44 9.5 -83t29.5 -70
t52.5 -49t76.5 -18q42 0 77 16t59.5 44.5t38 66t13.5 78.5q0 42 -12.5 81t-35.5 70.5t-55 49.5t-69 18zM376 588q0 80 -44 147q32 -3 66 -3q24 0 44.5 5.5t47.5 15.5q16 6 26 9l-147 -232q7 27 7 58zM193 754q15 0 27 -15.5t20 -43t12 -61t4 -66.5q0 -132 -57 -132
q-13 0 -24 16.5t-17.5 44.5t-10 61.5t-3.5 69.5q0 68 11 97t38 29zM439 363q15 0 27 -15.5t20 -42.5t12 -60.5t4 -66.5q0 -133 -58 -133q-13 0 -23.5 16.5t-17 45t-10 62t-3.5 69.5q0 68 11 96.5t38 28.5z" />
    <glyph glyph-name="ampersand" unicode="&#x26;" horiz-adv-x="841" 
d="M666 492q-25 0 -51.5 2t-65.5 6l-6 -16q27 -6 37 -18.5t10 -34.5q0 -16 -4 -34.5t-9 -27.5q-39 -82 -70 -122l-122 210q32 14 64 36.5t58.5 50.5t42 59t15.5 61q0 32 -14.5 58t-39 44t-53.5 27.5t-58 9.5q-56 0 -96 -18t-63.5 -47t-34 -61t-10.5 -61q0 -35 8.5 -64
t28.5 -65l24 -45q-112 -50 -174.5 -114.5t-62.5 -145.5q0 -34 21 -68.5t55.5 -62t74.5 -44t77 -16.5q54 0 107 31t99 75q39 -49 100.5 -77t126.5 -28q19 0 39.5 6t41.5 16q35 17 59 38l-23 36q-33 -22 -57.5 -28t-58.5 -6q-32 0 -59 24.5t-72 94.5l-11 18q35 41 64 85.5
t49 88.5q21 47 54.5 74.5t80.5 46.5l6 13q-22 -1 -62 -4q-47 -3 -66 -3zM305 646q0 16 7 34.5t19.5 35t27.5 27t31 10.5q18 0 30 -2.5t22 -10.5t16 -26t6 -48q0 -50 -28.5 -97.5t-71.5 -75.5l-36 60q-12 20 -17.5 41t-5.5 52zM170 225q0 59 30 107t79 74l145 -260
q-40 -34 -76.5 -45t-85.5 -11q-18 0 -34.5 12.5t-29.5 32.5t-20.5 44t-7.5 46z" />
    <glyph glyph-name="quotesingle" unicode="'" horiz-adv-x="177" 
d="M20 834l7 -83q2 -20 17.5 -35.5t43.5 -15.5q25 0 42 15t19 31l8 87q-27 -6 -43 -8t-26 -2q-13 0 -27.5 2t-40.5 9z" />
    <glyph glyph-name="parenleft" unicode="(" horiz-adv-x="224" 
d="M130 850q-52 -115 -81 -217.5t-29 -197.5q0 -104 29 -216t81 -239h74q-38 100 -51.5 211.5t-13.5 243.5q0 124 13 224t52 191h-74z" />
    <glyph glyph-name="parenright" unicode=")" horiz-adv-x="224" 
d="M20 850q39 -91 52 -191t13 -224q0 -132 -13.5 -243.5t-51.5 -211.5h74q52 128 81 239.5t29 215.5q0 94 -29 196.5t-81 218.5h-74z" />
    <glyph glyph-name="asterisk" unicode="*" horiz-adv-x="181" 
d="M90 830q-13 0 -21 -8t-12 -19h-5q-2 1 -4 1q-21 0 -26 -8q0 -1 -1 -3v-3q0 -9 16 -26q-15 -15 -15 -25q0 -3 2 -6q4 -7 33 -7q4 -10 12 -17.5t21 -7.5t21 6.5t11 16.5q30 0 35 8q2 3 2 6q0 8 -18 26q20 17 20 27q0 3 -2 6q-5 8 -26 8l-5 -1h-5q-3 11 -11.5 18.5
t-21.5 7.5z" />
    <glyph glyph-name="comma" unicode="," horiz-adv-x="201" 
d="M119 128q-15 0 -32.5 -5.5t-33 -15t-24.5 -21t-9 -22.5q0 -26 18 -47t51 -21h9q2 -13 2 -39q0 -21 -14 -45l43 -24q32 19 42 55.5t10 90.5q0 15 -2.5 30.5t-9.5 30t-19.5 24t-30.5 9.5z" />
    <glyph glyph-name="hyphen" unicode="-" horiz-adv-x="356" 
d="M20 331v-51h316v51h-316z" />
    <glyph glyph-name="period" unicode="." horiz-adv-x="195" 
d="M116 128q-15 0 -32 -5.5t-31 -14.5q-33 -20 -33 -42q0 -25 17.5 -45.5t49.5 -20.5t60 21t28 44q0 28 -12.5 45.5t-46.5 17.5z" />
    <glyph glyph-name="slash" unicode="/" horiz-adv-x="313" 
d="M228 804l-208 -805h65l208 805h-65z" />
    <glyph glyph-name="zero" unicode="0" horiz-adv-x="671" 
d="M354 814q-74 0 -136.5 -33t-106.5 -90.5t-67.5 -133t-23.5 -159.5q0 -88 15 -161.5t50 -129t94 -87t143 -31.5q80 0 142 31.5t103.5 88t62.5 130.5t21 159q0 90 -14 164t-47.5 131t-92 89t-143.5 32zM344 761q49 0 79.5 -27t46 -76t20.5 -111.5t5 -148.5
q0 -76 -11 -141.5t-31.5 -114.5t-50 -76.5t-66.5 -27.5q-45 0 -74.5 26.5t-46.5 75t-23.5 112.5t-6.5 144q0 77 9.5 143.5t29.5 116.5t50 77.5t70 27.5z" />
    <glyph glyph-name="one" unicode="1" horiz-adv-x="327" 
d="M176 5q26 0 55.5 -1.5t75.5 -5.5v14q-56 27 -59 95q-8 157 -8 296q0 48 3 166q3 98 3 135q0 20 -1.5 36.5t-6 32t-13.5 24.5t-23 9q-12 0 -27 -12t-38 -35q-20 -20 -29 -28q-18 -14 -53 -34q-35 -19 -35 -27v-12q0 -2 7.5 -6.5t18.5 -4.5q8 1 16 4.5t18 8.5q8 4 9 4
q3 0 6.5 -10t6.5 -26t5.5 -30.5t2.5 -24.5q2 -31 3 -66.5t1 -106.5q0 -199 -2 -299q-1 -32 -16 -53.5t-42 -35.5v-14q42 4 69.5 5.5t52.5 1.5z" />
    <glyph glyph-name="two" unicode="2" horiz-adv-x="590" 
d="M69 0h394q27 0 50.5 12.5t30.5 29.5l6 16q10 26 15 44t5 31q0 4 -7.5 11t-20.5 7q-9 0 -20 -8t-28 -24q-20 -19 -30 -26q-48 -34 -73 -34h-220q27 42 59.5 82t84.5 100t84.5 100.5t61 85t45.5 90.5t17 92q0 36 -16.5 72t-47.5 65.5t-76 47t-99 17.5q-63 0 -113 -19
t-83.5 -47.5t-50.5 -59t-17 -53.5q0 -30 28 -56t65 -26q35 0 65 21t30 61q0 29 -11 42t-29 22q-18 8 -18 17q0 19 26 29t56 10q42 0 69 -17.5t40.5 -45t18.5 -57t5 -59.5q0 -54 -18 -107.5t-48 -103t-63.5 -92t-86.5 -105.5q-76 -90 -108 -135q-4 -6 -4 -11q0 -8 9.5 -13.5
t22.5 -5.5z" />
    <glyph glyph-name="three" unicode="3" horiz-adv-x="617" 
d="M263 -13q77 0 140 25t106 67t65.5 93.5t22.5 104.5q0 31 -10 62.5t-31 59t-53.5 47t-76.5 25.5l15 11q62 47 84 75q18 22 27.5 47t9.5 56q0 65 -58.5 108.5t-165.5 43.5q-41 0 -91 -13t-94.5 -33.5t-73 -42.5t-28.5 -39q0 -6 7 -12.5t22 -6.5q13 0 50 20q45 25 85.5 39.5
t96.5 14.5q36 0 61.5 -37t25.5 -79q0 -36 -16.5 -70.5t-43.5 -55.5q-17 -13 -35 -22t-45 -20q-25 -11 -37 -17q-26 -15 -40 -31t-14 -27q0 -3 11 -7t21 -4h6q3 1 4 1q5 1 16 7q18 11 37.5 17t52.5 6q30 0 53.5 -14t40 -37.5t25 -51t8.5 -55.5q0 -39 -6 -72.5t-25 -64.5
t-58 -50t-103 -19q-18 0 -38.5 7.5t-38.5 19.5t-29 24.5t-11 22.5q0 2 5 2h7q8 -1 12 -1q21 0 35 16t14 62q0 22 -18 40t-61 18q-49 0 -78.5 -28.5t-29.5 -69.5q0 -32 19.5 -61.5t54 -52.5t78.5 -35.5t91 -12.5z" />
    <glyph glyph-name="four" unicode="4" horiz-adv-x="671" 
d="M23 251q-2 -4 -2 -8q0 -12 15.5 -20t29.5 -8h324q0 -40 -2 -114q-1 -32 -15.5 -54t-41.5 -35v-14q41 4 69 5.5t53 1.5q26 0 55.5 -1.5t75.5 -5.5v14q-56 26 -59 95q-4 67 -5 108h24q28 0 51 12.5t30 30.5l5 13q11 29 16 46.5t5 31.5q0 4 -7.5 10.5t-20.5 6.5q-9 0 -20 -8
t-28 -25q-20 -18 -29 -25q-5 -3 -13 -9q-10 -7 -15 -10q-1 38 -1 114v366q0 11 -13 19.5t-34 8.5h-60q-20 0 -28.5 -5.5t-15.5 -16.5zM390 275h-254l254 380v-380z" />
    <glyph glyph-name="five" unicode="5" horiz-adv-x="665" 
d="M198 175q0 32 -26.5 52.5t-58.5 20.5q-44 0 -68.5 -29.5t-24.5 -60.5q0 -51 28 -85.5t69 -53t80.5 -25.5t68.5 -7q74 0 132.5 26t98 69.5t59.5 96t20 104.5q0 58 -24.5 103.5t-65.5 76t-89.5 45.5t-96.5 15q-53 0 -91 -13l88 229h220q22 0 35 -11t28 -31q11 -16 19 -23.5
t19 -7.5q15 0 21 7t6 14v86q0 9 -11.5 20t-28.5 11h-344q-20 0 -32.5 -11.5t-16.5 -21.5l-141 -373q0 -9 12.5 -15.5t24.5 -6.5q8 0 34 13q29 14 53 22.5t50 8.5q35 0 68.5 -11t62 -35t45.5 -62.5t17 -91.5q0 -75 -46 -127t-128 -52q-15 0 -36.5 5t-42 13.5t-34 19.5
t-13.5 22q0 3 8 7q11 4 17 8q18 12 26.5 28t8.5 31z" />
    <glyph glyph-name="six" unicode="6" 
d="M347 535q-55 0 -94.5 -16.5t-69.5 -44.5q2 48 15 97.5t36.5 91.5t58.5 68t80 26q28 0 46 -5.5t18 -21.5q0 -1 -7 -3q-17 -5 -29.5 -17.5t-12.5 -45.5q0 -20 25.5 -42t58.5 -22q16 0 32 7t29 19t20.5 25.5t7.5 24.5q0 33 -18 58t-46.5 40.5t-61.5 23t-62 7.5
q-80 0 -146 -40.5t-112.5 -108t-70.5 -147.5t-24 -155q0 -176 76 -272.5t223 -96.5q72 0 126 24t89.5 65t52.5 93t17 108q0 55 -17.5 102.5t-51 83t-81.5 55t-107 19.5zM335 481q51 0 84 -61.5t33 -159.5q0 -47 -11.5 -89.5t-31.5 -74.5t-45 -49.5t-51 -17.5q-25 0 -48 17.5
t-40.5 49t-27.5 74t-10 90.5q0 97 41.5 159t106.5 62z" />
    <glyph glyph-name="seven" unicode="7" horiz-adv-x="587" 
d="M146 80q0 -35 6.5 -57.5t28.5 -22.5h85q11 0 18 8.5t10.5 21.5t4 25t0.5 27q0 94 10 181t37 175t79 172.5t133 156.5q7 8 8 9l1 1q0 6 -15 15.5t-31 9.5h-430q-17 0 -29 -11.5t-12 -19.5q0 -19 -17 -52q-13 -26 -13 -38q0 -6 9.5 -13.5t21.5 -7.5q18 0 31 9.5t30 27.5
q17 20 31.5 30t34.5 10h246q-132 -169 -205 -331.5t-73 -325.5z" />
    <glyph glyph-name="eight" unicode="8" 
d="M344 810q-55 0 -107 -14t-94 -41.5t-66 -69t-24 -94.5q0 -52 35 -104.5t95 -85.5q-74 -31 -118.5 -87t-44.5 -118q0 -46 13.5 -82.5t46.5 -64.5t89 -43.5t138 -15.5q58 0 112 20.5t96 55.5t65.5 78t23.5 86q0 67 -54 125.5t-136 91.5q38 17 65 32.5t50.5 35.5t38 46.5
t14.5 58.5q0 88 -64 139t-174 51zM236 367q33 0 74 -15t78 -41t60 -60t23 -71t-16 -65t-42.5 -46t-60 -26.5t-68.5 -8.5q-61 0 -96 47t-35 126q0 37 10.5 67t25 50.5t28.5 31.5t19 11zM337 766q53 0 86.5 -38.5t33.5 -104.5q0 -32 -10 -59t-25.5 -47t-32.5 -30.5t-29 -10.5
q-27 0 -56.5 14t-55.5 38t-41.5 54.5t-15.5 62.5q0 62 41.5 91.5t104.5 29.5z" />
    <glyph glyph-name="nine" unicode="9" 
d="M277 254q55 0 94.5 16.5t69.5 44.5q-2 -48 -15 -97.5t-36.5 -91.5t-58.5 -68t-80 -26q-28 0 -46 5.5t-18 21.5q0 1 7 3q17 5 29.5 17.5t12.5 45.5q0 20 -25.5 42t-58.5 22q-16 0 -32 -7t-29 -19t-20.5 -25.5t-7.5 -24.5q0 -33 18 -58t46.5 -40.5t61.5 -23t62 -7.5
q80 0 146 40.5t112.5 108.5t70.5 147.5t24 154.5q0 176 -76 272.5t-223 96.5q-72 0 -126 -24t-89.5 -65t-52.5 -93t-17 -108q0 -55 17.5 -102.5t51 -83t81.5 -55t107 -19.5zM289 308q-51 0 -84 61.5t-33 159.5q0 47 11.5 89.5t31.5 74.5t45 49.5t51 17.5q25 0 48 -17.5
t40.5 -49t27.5 -74t10 -90.5q0 -97 -41.5 -159t-106.5 -62z" />
    <glyph glyph-name="colon" unicode=":" horiz-adv-x="203" 
d="M121 135q-16 0 -33.5 -5.5t-33 -15t-25 -21t-9.5 -23.5q0 -27 17.5 -48.5t52.5 -21.5q34 0 63.5 22.5t29.5 46.5q0 29 -13.5 47.5t-48.5 18.5zM121 470q-16 0 -33.5 -5.5t-33 -15t-25 -21.5t-9.5 -24q0 -27 17.5 -48t52.5 -21q33 0 63 22t30 46q0 29 -13.5 48t-48.5 19z
" />
    <glyph glyph-name="semicolon" unicode=";" horiz-adv-x="205" 
d="M122 134q-16 0 -34 -5.5t-33.5 -15.5t-25 -22t-9.5 -23q0 -27 18.5 -48.5t52.5 -21.5h9q2 -13 2 -39q0 -25 -15 -46l45 -25q32 20 42.5 57t10.5 93q0 15 -2.5 31t-9.5 30.5t-19.5 24.5t-31.5 10zM122 470q-16 0 -34 -5.5t-33.5 -15t-25 -21.5t-9.5 -24q0 -27 18.5 -48.5
t52.5 -21.5q33 0 63.5 22.5t30.5 46.5q0 30 -13.5 48.5t-49.5 18.5z" />
    <glyph glyph-name="question" unicode="?" horiz-adv-x="587" 
d="M122 136q-16 0 -33.5 -5.5t-33.5 -15t-25.5 -21.5t-9.5 -24q0 -27 18.5 -48.5t53.5 -21.5q33 0 63 22.5t30 46.5q0 30 -13.5 48.5t-49.5 18.5zM114 168q17 0 30 10.5t13 20.5q0 30 14.5 54t38.5 42.5t51.5 32.5t75.5 35q56 26 91.5 45t67.5 45.5t51.5 64t19.5 85.5
q0 57 -21.5 97t-57 62.5t-77 32t-83.5 9.5q-73 0 -141.5 -22t-108.5 -53q-4 -3 -5 -4q-25 -20 -38.5 -34t-13.5 -27q0 -7 9 -16t25 -9q14 0 47 29q37 33 74 52.5t93 19.5q25 0 50 -7t46 -22.5t33.5 -40.5t12.5 -59q0 -42 -11 -72t-30 -51t-41.5 -36t-60.5 -35l-7 -4
q-43 -24 -72.5 -43.5t-55.5 -45.5t-42 -58t-16 -71q0 -9 11.5 -18t27.5 -9z" />
    <glyph glyph-name="at" unicode="@" horiz-adv-x="860" 
d="M600 267q-7 133 -8 241v37q0 41 -11 66t-30 37.5t-42 16t-54 3.5q-39 0 -77 -10t-65 -27q-36 -21 -56 -45t-20 -49q0 -23 45 -46q8 -5 21.5 -9t28.5 -4q14 0 30.5 9t16.5 17q0 5 -3 16q-3 15 -3 22q0 28 21.5 52.5t43.5 24.5q10 0 19 -17t9 -47v-88q-24 -14 -85 -35
q-41 -14 -66 -24.5t-47.5 -27t-36.5 -40t-14 -55.5q0 -24 12.5 -46t34.5 -39.5t49.5 -27.5t56.5 -10q24 0 53 10t55 25q14 -19 34 -30t44 -16t45.5 -6t52.5 -1q43 0 78.5 22.5t59.5 62.5q11 13 26 56q22 71 22 132q0 83 -31.5 158.5t-88 133.5t-131.5 90.5t-159 32.5
t-159 -32.5t-131.5 -90.5t-88 -133.5t-31.5 -158.5t31.5 -158t88 -133.5t131.5 -91t159 -32.5q60 0 116 14t91 42q21 17 21 27q0 9 -13 13.5t-30 4.5q-21 0 -28 -5q-11 -7 -30 -16t-41.5 -17.5t-45 -13.5t-40.5 -5q-53 0 -101.5 28t-86 79t-58.5 119t-21 145t21 145
t58.5 119t86 79t101.5 28t101.5 -28t86 -79t58.5 -119t21 -145q0 -74 -18 -130q-4 -12 -11 -29t-15 -32t-14.5 -24.5t-10.5 -9.5q-25 0 -28 75zM465 273q-29 -37 -54 -39q-24 0 -38.5 22t-14.5 49q0 30 27.5 51.5t80.5 48.5q0 -92 -1 -132z" />
    <glyph glyph-name="A" unicode="A" horiz-adv-x="881" 
d="M533 709l-48 119h-43q-63 0 -140 7l4 -12q34 -24 54.5 -53.5t20.5 -59.5q0 -10 -2 -14l-238 -578q-18 -43 -44.5 -68t-63.5 -38l-13 -16q40 6 65 8t48 2q20 0 43 -2t57 -7v12q-18 17 -18 40q0 11 2 19.5t9 24.5v1l88 228q49 5 118 5q49 0 112 -5l77 -210q2 -4 4.5 -15.5
t2.5 -21.5q0 -15 -19 -40q-13 -17 -13 -24v-14q44 7 75 9.5t62 2.5q26 0 56.5 -3t71.5 -10v16q-32 14 -53.5 38t-36.5 63zM430 374q-30 0 -90 2v3l94 232l88 -232v-3q-62 -2 -92 -2z" />
    <glyph glyph-name="B" unicode="B" horiz-adv-x="661" 
d="M152 820q-43 0 -129 8v-15q35 -19 47 -44t14 -61q4 -74 6 -153t2 -155q0 -94 -0.5 -150.5t-4.5 -125.5q-1 -32 -21.5 -65.5t-45.5 -45.5v-15q74 7 134 7q16 0 76 -1q84 -2 112 -2q58 0 104.5 6.5t78.5 26.5q56 35 86 90t30 105q0 49 -21 92.5t-66 77.5q-20 16 -53 29.5
t-74 24.5q50 34 80.5 80t31.5 103q0 48 -21 84t-53.5 58.5t-67 33t-62.5 10.5l-56 -1q-81 -2 -127 -2zM220 138v29q0 45 -1 124q-2 89 -2 121q20 0 57 -2q22 -1 27 -1q52 0 91 -16.5t64 -45t37 -65.5t12 -78q0 -32 -9 -62t-30 -48q-44 -40 -118 -40q-43 0 -67 3t-37.5 12
t-18.5 24.5t-5 44.5zM222 704q1 8 1 24q0 32 5 44h3q35 4 51 4q25 0 47 -6t40 -21.5t28.5 -43t10.5 -68.5q0 -47 -9.5 -80.5t-25 -53t-33.5 -28t-37 -8.5q-10 0 -44 2q-35 1 -36 1q0 32 -2 86q-1 50 -1 75q0 47 2 73z" />
    <glyph glyph-name="C" unicode="C" horiz-adv-x="831" 
d="M747 661q16 0 21.5 7t5.5 15q0 12 -2 37q-3 34 -3 48q0 25 -5 38t-23 13q-12 0 -18.5 -2t-6.5 -4q-14 0 -50 8q-19 4 -21 4q-47 9 -92 14.5t-82 5.5q-99 0 -182.5 -34.5t-143.5 -95.5t-92.5 -139.5t-32.5 -163.5q0 -84 33.5 -161t93.5 -136t139.5 -92t168.5 -33
q79 0 145.5 13t125.5 42q36 16 46 40q3 7 11 23q13 26 20.5 43.5t7.5 22.5q-1 3 -7 7t-18 4q-10 0 -19 -8t-21 -23q-8 -11 -13 -15q-44 -43 -122 -66q-34 -10 -67.5 -14.5t-64.5 -4.5q-62 0 -119.5 30.5t-101.5 84.5t-69.5 124t-25.5 145q0 76 22.5 140t65.5 111t104 72.5
t136 25.5q43 0 80 -8t72 -25q18 -9 31.5 -23t30.5 -35q15 -18 23.5 -26.5t18.5 -8.5z" />
    <glyph glyph-name="D" unicode="D" horiz-adv-x="905" 
d="M440 833q-43 0 -74.5 -1.5t-76.5 -3.5q-38 -3 -64.5 -4t-56.5 -1q-28 0 -68.5 2t-79.5 6v-11q77 -51 80 -110q4 -74 6 -153t2 -155v-142q0 -91 -1 -141q-1 -31 -24 -60.5t-51 -43.5v-15q39 4 74.5 5.5t63.5 1.5q35 0 108 -5q78 -5 112 -5q110 1 201.5 35.5t157.5 97
t101 146t35 179.5q0 82 -34.5 152t-96 121t-143 78t-171.5 27zM440 775q65 0 118 -19.5t96 -65.5q41 -45 65.5 -120.5t24.5 -152.5q0 -74 -23.5 -140t-66 -115t-98 -76t-116.5 -27q-83 0 -128 6.5t-68 24.5v10q-1 7 -1 9q-8 157 -8 296v119q0 63 0.5 104t3.5 79q0 5 1 14
q1 25 3 40q13 8 64.5 11t132.5 3z" />
    <glyph glyph-name="E" unicode="E" horiz-adv-x="667" 
d="M169 8h89q48 -1 110 -1h149q44 0 58 11t19 30l1 2q6 23 31 66q21 37 21 49q0 3 -8 8.5t-20 5.5t-24 -11t-32 -34q-27 -32 -42 -44q-27 -22 -55 -28t-71 -6q-29 0 -54 3t-47.5 12t-37 25.5t-15.5 41.5q-4 83 -6 139.5t-2 126.5q97 0 142 -4q35 -3 60 -14t40 -40h43
q-2 32 -2 42.5v37.5q0 25 4 58q2 17 3 31h-42q-23 -35 -44.5 -45.5t-53.5 -11.5q-15 -1 -45 -1q-33 0 -105 2v71q0 122 4 178q1 10 2 23q1 32 4 43l32 3q51 4 72 4q70 0 103 -13t49 -37q1 -1 4 -6q5 -11 11.5 -17t21.5 -6q12 0 18.5 5t6.5 8q0 13 -3 36q-5 31 -5 56
q0 9 -12 14.5t-30 8t-35 3t-39 0.5q-31 0 -105 -5q-10 -1 -29 -2q-39 -2 -66.5 -3t-43.5 -1q-21 0 -60 3t-97 9l-16 1l3 -17q38 -19 56 -46.5t20 -60.5q4 -74 6 -153t2 -155v-140.5t-2 -125.5q-1 -31 -25 -68q-11 -17 -23.5 -29.5t-24.5 -19.5v-22q11 1 16 1q46 5 73.5 7
t47.5 2z" />
    <glyph glyph-name="F" unicode="F" horiz-adv-x="582" 
d="M193 826q-20 0 -61.5 3.5t-89.5 7.5l-22 2l3 -17q39 -19 56.5 -46t19.5 -61q4 -74 6 -153t2 -155t-1 -143.5t-3 -162.5q-1 -32 -15.5 -54t-41.5 -35v-14q41 4 68.5 5.5t52.5 1.5q27 0 56.5 -1.5t75.5 -5.5v14q-56 26 -59 95q-4 68 -6 152t-2 161h23h72q34 0 49 -1
q35 -3 55.5 -12t35.5 -38l49 -4q-2 31 -3 54l-1 20v16v-16q0 10 -1 20v8v4q1 0 1 -16q1 11 3 31q3 18 4 34h-44q-20 -30 -36.5 -37t-47.5 -9h-9q-11 -1 -32 -1q-20 0 -64 2q-31 2 -49 2q0 26 -1 75q-1 47 -1 70q0 44 3 89q1 7 2 23q1 32 4 44l33 3q50 4 70 4q70 0 103.5 -13
t49.5 -37q1 -1 3 -6q5 -10 11.5 -16.5t21.5 -6.5q12 0 19 5t7 8q0 13 -3 36q-5 31 -5 56q0 9 -12 14.5t-30 8t-35.5 3t-39.5 0.5q-33 0 -107 -5l-26 -2q-46 -2 -70.5 -3t-40.5 -1z" />
    <glyph glyph-name="G" unicode="G" horiz-adv-x="854" 
d="M786 92q0 66 0.5 102t3.5 83l1 13q2 41 9.5 66.5t31.5 37.5l2 12q-31 -2 -67 -5q-31 -3 -47 -3q-25 0 -53 2t-73 6v-12q34 -22 44 -44t13 -69q2 -28 3 -94q1 -16 1 -32v-1q-1 -27 -3.5 -41.5t-9.5 -17.5q-58 -22 -102 -35t-73 -13q-61 0 -116.5 31.5t-98 86.5t-66 126
t-23.5 147t23 140t66 111t104 72.5t135 25.5q41 0 75.5 -8t72.5 -27q18 -9 33 -25t34 -41q16 -20 25.5 -30t18.5 -10q16 0 21.5 12.5t5.5 24.5q0 11 -1 34q-2 30 -2 45q0 10 1 23v10q0 4 -5.5 7.5t-18.5 3.5q-6 0 -18 -1q-10 -2 -19 -2q-7 0 -25 8q-25 10 -44 14
q-47 9 -92 14.5t-82 5.5q-99 0 -182.5 -34.5t-143.5 -95.5t-92.5 -139.5t-32.5 -163.5q0 -84 33.5 -161t93.5 -136t139.5 -92t168.5 -33q137 0 231 38q11 4 34 11q33 10 45 16t16.5 16.5t4.5 20.5z" />
    <glyph glyph-name="H" unicode="H" horiz-adv-x="859" 
d="M708 6q26 0 55.5 -1.5t75.5 -5.5v14q-56 27 -59 95q-8 158 -8 296v119q0 63 0.5 104t3.5 79q3 39 15 70.5t39 45.5v12q-21 -1 -60 -4q-45 -3 -64 -3q-25 0 -52 2t-74 6v-12q34 -22 45 -49t12 -65q7 -130 8 -246q-106 -3 -212 -3q-124 0 -221 4v69q0 117 4 172
q3 40 14.5 71t39.5 45v12q-27 -1 -59 -4q-48 -3 -66 -3q-25 0 -52.5 2t-72.5 6v-12q33 -22 44 -48.5t13 -65.5q4 -74 6 -153t2 -155q0 -199 -2 -299q-1 -32 -16 -53.5t-41 -35.5v-14q41 4 68.5 5.5t52.5 1.5q27 0 56.5 -1.5t75.5 -5.5v14q-57 27 -59 95q-8 158 -8 296v3
q108 3 221 3q104 0 212 -3v-5q0 -199 -2 -299q-1 -32 -15.5 -54t-41.5 -35v-14q41 4 69 5.5t53 1.5z" />
    <glyph glyph-name="I" unicode="I" horiz-adv-x="298" 
d="M147 5q27 0 55.5 -1.5t75.5 -5.5v14q-56 27 -59 95q-8 158 -8 296v119q0 63 0.5 104t3.5 79q3 39 15 70.5t40 45.5v12q-22 -1 -61 -4q-45 -3 -64 -3q-25 0 -52 2t-73 6v-12q33 -22 44 -49.5t13 -64.5q4 -74 6 -153t2 -155q0 -199 -2 -299q-1 -32 -16 -53.5t-42 -35.5v-14
q42 4 69.5 5.5t52.5 1.5z" />
    <glyph glyph-name="J" unicode="J" horiz-adv-x="401" 
d="M194 716q4 -74 6 -153t2 -154v-82q0 -48 -1 -91.5t-4.5 -85t-11 -80.5t-19.5 -69q-17 -49 -43.5 -69.5t-81.5 -41.5l-2 -1q-12 -5 -15.5 -8t-3.5 -5q0 -6 14.5 -10t25.5 -4q26 0 48.5 7.5t52.5 21.5q46 21 79.5 47.5t50.5 63.5q25 54 32 127t7 193v251q0 94 3 139t12 75
t36 44v12q-30 -2 -69 -6q-34 -3 -50 -3q-24 0 -59.5 2.5t-82.5 6.5v-13q71 -49 74 -114z" />
    <glyph glyph-name="K" unicode="K" horiz-adv-x="831" 
d="M147 7q27 0 56 -1.5t76 -5.5v14q-57 26 -60 95q-7 144 -8 259q3 3 6 7q10 11 18 21q28 -30 58 -67t76 -96q19 -25 34 -44q9 -11 30 -39q31 -40 52.5 -64.5t49.5 -46t64.5 -34t82.5 -12.5q47 0 88 15t41 22q0 5 -5 8.5t-23 3.5q-14 0 -22 -1.5t-14 -3.5t-9 -2
q-43 0 -93.5 50t-132.5 155q-24 29 -59 73q-96 115 -136 172q6 7 18 20q65 70 107.5 115.5t83.5 86.5q39 39 81 71t84 47l12 14q-33 -2 -69 -4q-46 -3 -65 -3q-35 0 -112 7l-12 -14q6 -10 6 -28q0 -22 -10.5 -46.5t-25.5 -43.5q-43 -57 -95.5 -116t-108.5 -115
q0 78 0.5 130.5t3.5 100.5q3 39 15 70.5t40 45.5v12q-22 -1 -61 -4q-45 -3 -64 -3q-25 0 -52.5 2t-72.5 6v-12q33 -22 44 -49t13 -64q4 -75 6 -154t2 -155q0 -199 -2 -299q-1 -32 -16 -53.5t-41 -35.5v-14q41 4 68.5 5.5t52.5 1.5z" />
    <glyph glyph-name="L" unicode="L" horiz-adv-x="626" 
d="M154 6q35 0 95 -3q39 -2 64.5 -3t60.5 -1q30 0 90 4q35 2 39 2q26 1 39.5 15t17.5 29q6 22 26 67q11 24 15.5 37t4.5 21q0 6 -5 12t-21 6q-13 0 -23.5 -11.5t-25.5 -34.5q-25 -39 -42 -52q-29 -23 -67 -34t-75 -11q-55 0 -86.5 18.5t-34.5 68.5q-4 84 -6 140.5t-2 127.5
v119q0 63 0.5 104t3.5 79q3 39 15 70.5t39 45.5v12q-20 -1 -59 -4q-45 -3 -65 -3q-25 0 -52 2t-74 6v-12q33 -22 44.5 -49.5t13.5 -64.5q4 -74 6 -153t2 -155v-140.5t-2 -125.5q0 -15 -6.5 -34t-17 -37t-22.5 -31t-24 -19l1 -17q97 9 133 9z" />
    <glyph glyph-name="M" unicode="M" horiz-adv-x="1081" 
d="M889 708q0 2 -1 7v8q0 29 15.5 57.5t41.5 42.5v12q-14 -1 -44 -3q-36 -2 -51.5 -2.5t-37.5 -0.5l-50 -119l-213 -503l-285 622q-41 0 -68 1t-65 5v-12q61 -43 61 -102l-79 -582q-6 -48 -26.5 -82t-53.5 -45l-13 -16q40 6 65 8t48 2q26 0 62.5 -2.5t71.5 -7.5l-7 17
q-28 12 -40.5 31.5t-12.5 50.5q0 15 1 20l53 407q23 -47 138 -287q41 -86 60.5 -127t27 -55.5t12.5 -24t9 -17.5q5 -8 11 -12t19 -4q10 0 17.5 5t10.5 9l211 510l60 -443v-4q1 -2 1 -3q0 -14 -6.5 -21.5t-18.5 -16.5q-17 -12 -17 -21v-14q44 7 75 9.5t61 2.5q27 0 57.5 -3
t71.5 -10v16q-36 14 -57.5 39t-27.5 64z" />
    <glyph glyph-name="N" unicode="N" horiz-adv-x="845" 
d="M614 839v-13q32 -21 41 -47t11 -66v-1q4 -74 6 -153t2 -155v-124v-63l-520 614q-26 1 -50.5 2.5t-69.5 6.5q-9 1 -14 1l5 -14q31 -22 44 -48t16 -59v-7q2 -33 2 -102q0 -36 -1 -107q-1 -69 -1 -101q0 -200 -2 -299q-1 -32 -16 -54t-41 -35v-14q44 4 58 5t30 1
q26 0 55.5 -1.5t75.5 -5.5v14q-56 25 -59 95q-8 157 -8 296v135v71l518 -598q9 -12 21.5 -21.5t22.5 -9.5q17 0 23 7.5t6 25.5q0 7 -1 27l-1 11q-2 33 -2 113q0 37 1 132q1 70 1 107v119q0 63 0.5 104t3.5 79q3 39 15 70.5t39 45.5v12q-21 -1 -60 -4q-45 -3 -64 -3
q-7 0 -28 3q-32 6 -59 8z" />
    <glyph glyph-name="O" unicode="O" horiz-adv-x="910" 
d="M455 835q-89 0 -168.5 -33t-139.5 -92.5t-93.5 -136.5t-33.5 -161t33.5 -161t93.5 -136t139.5 -92t168.5 -33t168.5 31.5t139.5 89t93.5 136t33.5 167.5q0 87 -29 163t-85 134t-137.5 91t-183.5 33zM455 776q64 0 118.5 -26.5t95.5 -78t63.5 -126t22.5 -168.5
q0 -75 -22.5 -136t-63.5 -104t-95.5 -65.5t-118.5 -22.5q-61 0 -114.5 31t-93.5 86t-62 125.5t-22 146.5t21.5 138.5t61 107t93 68.5t116.5 24z" />
    <glyph glyph-name="P" unicode="P" horiz-adv-x="622" 
d="M152 820q-42 0 -130 8v-15q35 -18 47.5 -43.5t14.5 -61.5q4 -74 6 -153t2 -155q0 -199 -2 -299q-1 -30 -20 -51t-50 -37v-15q74 7 134 7q26 0 55.5 -1.5t75.5 -5.5v14q-32 15 -44 33.5t-15 61.5q-8 117 -8 264q18 -5 39 -7.5t39 -2.5q57 0 104.5 8t85.5 35q52 36 84 90
t32 109q0 52 -27 102t-81 83q-30 18 -76 29.5t-82 11.5q-29 0 -91 -4q-60 -5 -93 -5zM222 704q1 8 1 24q0 32 5 44h3q35 4 50 4q33 0 61 -6.5t54 -23.5q29 -20 48.5 -58t19.5 -78q0 -50 -9.5 -90.5t-30.5 -63.5q-27 -28 -61.5 -42t-70.5 -15q-8 0 -30 5q-29 6 -44 6v117
q0 61 0.5 100.5t3.5 76.5z" />
    <glyph glyph-name="Q" unicode="Q" horiz-adv-x="930" 
d="M468 832q-89 0 -170.5 -34.5t-144.5 -95t-98 -139t-35 -162.5q0 -87 33.5 -160.5t93 -126.5t138.5 -83.5t169 -35.5q64 -4 121 -27t137 -66q128 -69 232 -106.5t223 -37.5q81 0 161.5 31.5t139.5 83.5q10 8 14 12.5t4 5.5l-1 1q-11 6 -22 6q-7 0 -15.5 -3.5t-10.5 -4.5
q-37 -30 -73 -42t-80 -12q-110 0 -213 29.5t-257 89.5q-119 46 -184 67q62 22 113 59t88 87.5t57 112t20 129.5q0 83 -29.5 159t-87 135.5t-139.5 93.5t-184 34zM163 427q0 77 21.5 140.5t61.5 109.5t96 70.5t124 24.5q62 0 116.5 -24t96.5 -71.5t65.5 -118.5t23.5 -161
q0 -161 -79.5 -252.5t-212.5 -91.5q-67 0 -124.5 28t-100 78.5t-65.5 119t-23 148.5z" />
    <glyph glyph-name="R" unicode="R" horiz-adv-x="881" 
d="M152 819q-43 0 -129 8v-15q35 -18 47 -43.5t14 -61.5q4 -74 6 -153t2 -155q0 -200 -2 -300q-1 -30 -20 -51t-50 -37v-14q74 7 134 7q27 0 56 -1.5t76 -5.5v14q-32 14 -44.5 33t-15.5 61q-7 122 -7 261l12 1q28 3 41 3h40q25 -27 47.5 -59.5t55.5 -82.5q41 -63 71 -104
t68.5 -77t87 -57.5t107.5 -21.5q12 0 31 3.5t38 10t31 14t12 15.5q-3 3 -10.5 6.5t-16.5 3.5q-10 0 -28 -2q-11 -1 -17 -1q-35 0 -72 25.5t-72.5 68t-66.5 90t-73 115.5q-31 50 -45 72q18 6 38 19q50 34 77.5 85.5t27.5 108.5q0 53 -26 104t-80 83q-28 18 -76 28.5t-85 10.5
q-30 0 -90 -4q-61 -5 -94 -5zM223 703q1 9 1 26q0 30 4 42h3q35 4 51 4q38 0 66 -4.5t51 -20.5q29 -20 47.5 -59.5t18.5 -81.5q0 -99 -37.5 -141.5t-135.5 -42.5h-29q-28 -1 -44 -1v111q0 115 4 168z" />
    <glyph glyph-name="S" unicode="S" horiz-adv-x="533" 
d="M236 -7q68 0 120.5 20.5t87 54.5t51.5 76.5t17 87.5q-1 41 -17 76.5t-43 65.5t-56.5 53.5t-74.5 55.5q-80 57 -118.5 97.5t-38.5 93.5q0 43 33 75t71 32q31 0 63.5 -11t60.5 -35q6 -6 20 -30q14 -25 25 -38.5t26 -13.5q14 0 20 8t6 14q0 22 -4 66q-5 48 -5 73q0 4 -5.5 9
t-19.5 5q-17 0 -26.5 -2.5t-17.5 -6.5q-3 -2 -4 -2q-16 0 -54 8q-47 9 -73 9q-58 0 -102 -19t-72.5 -50t-42.5 -68t-14 -75t14.5 -70.5t39 -59.5t52.5 -48.5t72 -51.5q41 -28 67 -48t48.5 -43.5t35.5 -51.5t13 -61q0 -34 -12.5 -61t-33.5 -44.5t-44.5 -26t-46.5 -8.5
q-30 0 -71.5 20t-67.5 50q-11 13 -26 48q-10 22 -16.5 31.5t-15.5 9.5q-20 0 -28.5 -13t-8.5 -26q0 -16 2 -34.5t5 -32.5q1 -9 1 -10q0 -27 8.5 -42.5t35.5 -23.5q6 -2 24 -7q43 -13 73 -19t67 -6z" />
    <glyph glyph-name="T" unicode="T" horiz-adv-x="793" 
d="M773 846h-34q-7 -2 -20 -7q-27 -10 -43 -11q-42 -1 -83 -2q-115 -4 -169 -4q-163 0 -245 1q-20 1 -28 4t-18 14h-42q-5 -21 -22 -53q-6 -12 -7 -15q-6 -13 -24 -38q-17 -24 -18 -32q0 -2 9 -6.5t18 -4.5q13 0 23 6t21 16q5 5 7 6q18 15 34.5 23t28.5 11q40 9 81 12t93 3
l1 -50q2 -73 2 -144v-176q0 -199 -2 -299q-1 -32 -16 -53.5t-42 -35.5v-14q42 4 69.5 5.5t52.5 1.5q27 0 55.5 -1.5t75.5 -5.5v14q-56 27 -59 95q-8 158 -8 296v65q-1 40 -1 73q0 99 5 164l5 65h79q52 0 76 -1q10 -1 18.5 -7.5t11.5 -20.5q1 -2 2 -11q2 -17 7 -26t19 -9
q7 0 18.5 4.5t12.5 10.5q5 22 29 71q24 47 27 66z" />
    <glyph glyph-name="U" unicode="U" horiz-adv-x="776" 
d="M385 -11q75 0 128 10t94.5 42t65 98.5t23.5 175.5q0 8 1 44v43q0 98 0.5 168.5t3.5 133.5q2 53 13 76.5t42 39.5v12q-22 -1 -61 -4q-45 -3 -64 -3q-10 0 -37 2q-32 3 -58 4v-12q39 -21 50.5 -43.5t13.5 -69.5q2 -40 2 -123v-95q-1 -77 -1 -90v-48q0 -40 -1 -68
q-2 -77 -15.5 -124t-38 -71t-60 -32t-91.5 -8q-41 0 -70.5 7t-53.5 28.5t-39 64t-17 111.5q-2 52 -2.5 82.5t-0.5 60.5v119q0 63 0.5 104t3.5 79q3 39 15 70.5t39 45.5v12q-20 -1 -59 -4q-45 -3 -65 -3q-25 0 -52 2t-74 6v-12q33 -22 44.5 -49.5t13.5 -64.5q2 -58 2 -90
q0 -43 -1 -114q-2 -78 -2 -107q0 -21 2 -85l1 -70q1 -81 30 -132.5t74 -77t95 -33.5t106 -8z" />
    <glyph glyph-name="V" unicode="V" horiz-adv-x="902" 
d="M252 393q12 -28 25 -58t36 -81q42 -95 66 -151.5t40 -98.5q3 -6 12 -12t21 -6t20 5t10 9q35 88 63.5 156.5t60.5 141.5q30 69 43 101q8 19 24 61q31 80 54 135.5t46 105.5q22 43 46 73t57 44l6 13q-23 -1 -63 -4q-47 -3 -67 -3q-41 0 -118 8l-7 -16q28 -6 38 -19t10 -35
q0 -29 -14 -63q-9 -27 -17 -49q-33 -94 -57.5 -160.5t-44.5 -118.5q-40 -97 -72 -178l-4 8q-58 134 -84 201q-30 75 -62.5 156t-56.5 145q-10 27 -10 60q0 38 22 52l-7 13q-85 -5 -120 -5q-28 0 -99 6l-29 3l3 -14q39 -20 56.5 -43.5t33.5 -62.5l3 -6l17 -37
q39 -88 68 -153.5t51 -122.5z" />
    <glyph glyph-name="W" unicode="W" horiz-adv-x="1212" 
d="M1061 828q-25 0 -52.5 2t-68.5 6l-7 -16q30 -6 40.5 -19t10.5 -36q0 -28 -14 -62q-17 -44 -48 -130q-20 -55 -40 -108.5t-35 -91.5q-14 -34 -40 -97q-22 -55 -33 -82q-34 77 -90 210l-9 21q-3 5 -5 10q13 31 27 67q58 141 88 204q21 41 45.5 72t58.5 45l6 13
q-19 -1 -66 -4q-48 -3 -66 -3q-25 0 -52 2t-68 6l-7 -16q29 -6 39.5 -19t10.5 -36q0 -28 -14 -62q-10 -25 -28 -76q-16 -45 -24 -68q-31 78 -56 148q-10 25 -10 58q0 39 22 53l-7 13q-43 -2 -71.5 -3.5t-51.5 -1.5q-28 0 -98 6q-15 2 -31 3l3 -14q39 -20 56 -42.5t34 -59.5
q3 -7 4 -10q44 -95 78 -170.5t61 -144.5q1 -2 3 -7q-4 -9 -6 -14q-25 -59 -73 -179q-49 112 -91 210q-28 63 -55 133t-64 170q-11 25 -11 59q0 40 23 53l-7 13q-43 -2 -71.5 -3.5t-52.5 -1.5q-27 0 -101 7q-13 1 -27 2l3 -14q39 -20 56 -42.5t35 -61.5q0 -1 3 -8
q34 -75 71.5 -159.5t67.5 -155.5q14 -31 48 -107q43 -98 73 -167t48 -116q3 -6 12 -12t21 -6t20 5t10 9q40 98 67 163t49 115q42 -93 72 -161t47 -114q4 -6 12 -12t20 -6t20.5 5.5t10.5 8.5q36 90 64 156.5t63 148.5q27 61 41 95q25 62 55 132.5t73 171.5q20 42 44.5 72.5
t59.5 44.5l6 13q-18 -1 -65 -4q-45 -3 -66 -3z" />
    <glyph glyph-name="X" unicode="X" horiz-adv-x="862" 
d="M705 829q-42 0 -127 8v-12q12 -17 12 -35t-8 -37.5t-21 -38.5q-61 -98 -107 -169q-47 78 -92 164q-2 4 -8 15q-15 25 -22.5 42.5t-7.5 32.5q0 16 11 24l3 11q-14 -1 -57 -3q-52 -4 -71 -4q-25 0 -53 2t-80 6l9 -14q40 -18 62.5 -42t47.5 -63q3 -6 10 -16q29 -45 72 -110
q66 -100 101 -154q-8 -10 -20 -30q-97 -143 -208 -299q-23 -33 -53 -54.5t-66 -35.5l-12 -18q29 3 32 3q71 6 97 6q29 0 108 -7q24 -2 26 -2v12q-23 16 -23 47q1 22 15 49q32 59 69.5 119.5t82.5 128.5q21 -37 56 -102q56 -102 86 -153q11 -18 17 -34.5t6 -28.5
q0 -17 -11 -25v-13q73 7 124 7q26 0 56 -1.5t81 -5.5l-10 16q-35 12 -60.5 37t-49.5 62q-74 112 -184 293q-5 8 -14 24q-13 22 -22 35q46 65 146 202l31 41q28 36 67 67t80 46l10 14q-17 -1 -65 -4q-49 -3 -66 -3z" />
    <glyph glyph-name="Y" unicode="Y" horiz-adv-x="826" 
d="M684 826q-14 0 -28 1t-34 3q-26 3 -51 5l4 -13q13 -17 13 -41q0 -19 -12 -43t-32 -57q-3 -6 -5 -9q-56 -96 -122 -183q-25 37 -73 123q-24 44 -36 65q-4 7 -12 22q-16 28 -24.5 47.5t-8.5 36.5q0 9 6 21.5t12 16.5l7 14q-24 -2 -59 -6q-52 -5 -71 -5q-27 0 -59.5 2.5
t-78.5 7.5l9 -15q40 -21 63.5 -47t50.5 -66q12 -19 15 -23q36 -54 106 -178q52 -91 76 -131q0 -183 -2 -274q-1 -32 -16 -53.5t-41 -35.5v-14q41 4 68.5 5.5t52.5 1.5q27 0 56 -1.5t76 -5.5v14q-57 26 -60 95q-7 131 -7 224q0 51 1 77q39 59 89 133.5t99 147.5q34 50 65 85
t68 51l17 14q-26 -1 -44.5 -3t-39.5 -5q-26 -4 -38 -4z" />
    <glyph glyph-name="Z" unicode="Z" horiz-adv-x="885" 
d="M404 3q19 0 78 -1t82 -2q139 -3 157 -3q23 0 39.5 6t26.5 15t14.5 17.5t6.5 15.5q4 16 12.5 31t22.5 35q22 33 22 44q0 3 -7.5 8.5t-20.5 5.5q-11 0 -20 -6.5t-24 -21.5q-24 -24 -41 -35q-22 -15 -65.5 -25.5t-93 -16t-92.5 -8t-85 -3.5q-10 -1 -16 -1l-27 -1
q-50 -1 -67 -1q-41 0 -56.5 3t-15.5 11q0 4 1 6l1 2l595 720l1 2q4 7 4 9q0 5 -8 10t-22 5q-4 0 -166 2q-145 1 -174 1q-21 0 -52 0.5t-88 1.5q-89 2 -117.5 2.5t-57.5 0.5q-37 0 -50 -8t-13 -23q0 -24 -6 -64q-5 -30 -5 -44q0 -5 7.5 -14.5t20.5 -9.5q11 0 16.5 6t11.5 20
q6 15 13.5 25t21.5 18q34 17 99 25.5t169 8.5h63h75t60 -2q-108 -134 -188.5 -233t-139.5 -171t-98.5 -120.5t-109.5 -133.5q-53 -65 -65.5 -80.5t-12.5 -17.5q0 -10 7.5 -13.5t18.5 -3.5q4 0 10 1h2q99 0 143 0.5t99 2.5q57 1 104 2z" />
    <glyph glyph-name="backslash" unicode="\" horiz-adv-x="313" 
d="M20 804l208 -805h65l-208 805h-65z" />
    <glyph glyph-name="underscore" unicode="_" horiz-adv-x="288" 
d="M20 -28v-20h248v20h-248z" />
    <glyph glyph-name="grave" unicode="`" horiz-adv-x="230" 
d="M20 834l63 -86q15 -18 39 -33t49 -15q39 0 39 25q0 10 -8 23l-47 84q-39 -9 -59 -9q-13 0 -29.5 2t-46.5 9z" />
    <glyph glyph-name="a" unicode="a" horiz-adv-x="710" 
d="M429 496l-38 84h-36q-52 0 -112 4l3 -8q27 -16 44 -37t17 -42q0 -6 -2 -10l-191 -404q-15 -30 -36.5 -47.5t-51.5 -27.5l-10 -11q31 4 51 5.5t40 1.5q18 0 35.5 -1t44.5 -5v8q-14 12 -14 28q0 13 9 32l71 159q41 4 94 4q50 0 91 -4l62 -147q2 -2 4 -10.5t2 -15.5
q0 -10 -15 -27q-11 -12 -11 -17v-10q35 4 61.5 6t48.5 2t46 -2t57 -7v11q-26 10 -43 26.5t-29 44.5zM346 262q-48 0 -72 1v2l76 163l70 -163v-2q-24 -1 -74 -1z" />
    <glyph glyph-name="b" unicode="b" horiz-adv-x="532" 
d="M122 574q-38 0 -104 6v-11q29 -13 38.5 -30.5t11.5 -42.5q3 -64 4.5 -118t1.5 -98q0 -66 -0.5 -106t-3.5 -87q-1 -22 -17.5 -45.5t-36.5 -32.5v-10q72 5 108 5q14 0 62 -1q68 -2 89 -2q46 0 83.5 4.5t64.5 18.5q45 26 69 64t24 73q0 34 -16.5 64.5t-53.5 54.5
q-16 11 -43 21t-59 17q40 23 65 55.5t25 72.5q0 33 -17 58t-43 41t-54 23.5t-51 7.5h-2q-88 -2 -145 -2zM177 97v20q0 28 -1 86t-1 85q14 0 45 -1q18 -1 23 -1q82 0 123 -41t41 -102q0 -22 -7.5 -43.5t-24.5 -33.5q-35 -28 -94 -28q-67 0 -85.5 10.5t-18.5 48.5zM178 493
q1 7 2 20q1 20 4 27q23 3 43 3t38 -4t32.5 -15t23 -30t8.5 -48q0 -63 -25.5 -91t-59.5 -28q-11 0 -29.5 0.5t-35.5 1.5q0 22 -1 60q-1 36 -1 53q0 33 1 51z" />
    <glyph glyph-name="c" unicode="c" horiz-adv-x="669" 
d="M601 463q13 0 17.5 4.5t4.5 10.5q0 7 -2 26q-2 22 -2 34q0 18 -3.5 26.5t-18.5 8.5q-21 0 -21 -4q-12 0 -42 6q-8 2 -14 3q-43 7 -77 10.5t-63 3.5q-80 0 -147.5 -24.5t-116 -67t-74.5 -97.5t-26 -115q0 -59 26.5 -112.5t75 -95t112.5 -64.5t136 -23q64 0 117.5 9
t100.5 30q30 10 37 28q11 17 21.5 37t10.5 25q-1 2 -5.5 5t-14.5 3q-8 0 -15.5 -6t-16.5 -16l-11 -11q-36 -30 -93.5 -44.5t-111.5 -14.5q-49 0 -95 21.5t-82 59t-56.5 86.5t-20.5 102t18 98t53 77q73 69 194 69q68 0 122 -23q14 -6 24.5 -15.5t24.5 -24.5q23 -25 34 -25z
" />
    <glyph glyph-name="d" unicode="d" horiz-adv-x="728" 
d="M354 583q-35 0 -59.5 -1t-62.5 -3q-31 -1 -51 -2t-45 -1q-23 0 -55.5 1.5t-64.5 4.5v-8q62 -36 65 -77q3 -51 4.5 -106.5t1.5 -109.5v-99q0 -64 -1 -99q-1 -22 -19.5 -42.5t-41.5 -30.5v-10q55 5 112 5q26 0 88 -3q59 -4 89 -4q88 0 162 24.5t127 68t81.5 102t28.5 125.5
q0 58 -28 107t-77.5 84.5t-115 54.5t-138.5 19zM354 542q53 0 95.5 -13.5t77.5 -45.5q32 -32 52 -84.5t20 -106.5q0 -52 -19 -98t-53 -80.5t-79 -53.5t-94 -19q-66 0 -102.5 5t-54.5 17v7q-1 5 -1 6q-7 121 -7 208v83q0 88 3 128q0 3 1 10q1 17 3 28q9 5 49.5 7t108.5 2z
" />
    <glyph glyph-name="e" unicode="e" horiz-adv-x="537" 
d="M136 6h71q39 -1 90 -1h119q36 0 47.5 8t14.5 21v1q5 16 25 45q18 27 18 36q0 2 -6.5 5.5t-16.5 3.5q-9 0 -18.5 -7.5t-25.5 -23.5q-22 -22 -34 -31q-22 -15 -45.5 -19.5t-57.5 -4.5q-22 0 -42 2t-38 8.5t-30 18t-13 29.5v6q-4 63 -5.5 98.5t-1.5 81.5q79 0 114 -3
q29 -2 49.5 -10t31.5 -28h35q-2 23 -2 30v26q0 15 3 37q2 16 3 25h-33q-19 -24 -37 -31.5t-43 -7.5q-11 -1 -35 -1q-6 0 -41 1h-45v50q0 85 4 125q0 5 1 10q1 26 4 36l18 1q48 4 65 4q57 0 84 -9.5t38 -25.5q2 -2 4 -6q4 -7 9.5 -11t16.5 -4q10 0 15.5 3.5t5.5 5.5
q0 10 -3 26q-4 22 -4 39q0 6 -9.5 9.5t-23.5 5.5t-28.5 2.5t-31.5 0.5q-26 0 -79 -3q-19 -1 -29 -2q-25 -1 -48 -2q-33 -1 -41 -1q-12 0 -32 1.5t-64 4.5q-9 1 -43 3l2 -11q31 -13 45.5 -32.5t15.5 -42.5q4 -51 5.5 -106t1.5 -110q0 -116 -1 -186q-1 -22 -20 -47.5
t-40 -34.5v-15q17 1 39 3q53 4 72 4z" />
    <glyph glyph-name="f" unicode="f" horiz-adv-x="468" 
d="M155 578q-10 0 -34 1.5t-59 4.5l-46 3l2 -12q32 -13 46 -32.5t15 -42.5q4 -50 5.5 -105t1.5 -110q0 -109 -3 -214q-1 -43 -46 -63v-9q70 5 98 5q19 0 37.5 -1t61.5 -4h6v9q-45 20 -47 67q-3 52 -5 111.5t-2 107.5h19h58q28 0 39 -1q30 -2 46.5 -8.5t27.5 -26.5l39 -2
q-2 35 -3 51v11v-11v20v-9q1 8 2 21q3 14 3 25h-35q-16 -21 -29 -26t-39 -6h-7q-8 -1 -25 -1q-20 0 -57 2q-12 0 -34 1q0 18 -1 52q-1 33 -1 49q0 32 3 63l1 10q1 26 4 37q13 1 45 3q27 2 37 2q56 0 83.5 -9.5t40.5 -26.5q1 -1 2 -4q4 -7 9.5 -11.5t16.5 -4.5q10 0 15.5 3.5
t5.5 5.5q0 9 -3 26q-3 22 -3 39q0 6 -9.5 9.5t-23.5 5.5t-28.5 2.5t-32.5 0.5q-25 0 -81 -3l-26 -2l-50 -2q-32 -1 -40 -1z" />
    <glyph glyph-name="g" unicode="g" horiz-adv-x="688" 
d="M633 64q0 47 0.5 73t2.5 57l1 8q1 29 7 47.5t25 26.5l3 8q-25 -1 -54 -3q-26 -2 -38 -2q-19 0 -42.5 1.5t-59.5 3.5v-8q27 -16 35.5 -31.5t10.5 -47.5q3 -28 3 -89q0 -17 -2 -28.5t-9 -13.5q-48 -15 -82 -24t-58 -9q-50 0 -94.5 22t-78.5 60.5t-53 88.5t-19 103t18.5 98
t53.5 78t84 50.5t109 17.5q32 0 60.5 -6t57.5 -19q15 -6 27.5 -17.5t27.5 -28.5q25 -28 35 -28q12 0 17 9t5 17q0 7 -1 25q-2 19 -2 30v23q0 3 -3.5 5.5t-14.5 2.5q-6 0 -15 -1t-15 -1q-5 0 -21 6q-21 8 -34 10q-43 7 -77 10.5t-63 3.5q-80 0 -147.5 -24.5t-116 -67
t-74.5 -97.5t-26 -115q0 -59 27 -112.5t75.5 -95t112.5 -64.5t135 -23q109 0 186 27q11 4 30 8q25 7 34 10q10 5 13.5 12.5t3.5 13.5z" />
    <glyph glyph-name="h" unicode="h" horiz-adv-x="691" 
d="M570 4q24 0 49 -1t56 -4v10q-45 19 -47 67q-7 97 -7 207v83q0 88 3 128q3 28 12.5 50t31.5 31v9q-22 -1 -51 -3q-35 -2 -49 -2q-28 0 -101 5v-8q27 -15 36 -34t10 -46q6 -108 7 -172h-8q-105 -2 -164 -2q-88 0 -178 3v48q0 82 4 121q2 28 11.5 49.5t31.5 31.5v8
q-21 -1 -50 -3q-35 -2 -50 -2q-35 0 -101 6v-9q27 -15 35.5 -33.5t10.5 -45.5q3 -58 5 -113.5t2 -102.5q0 -139 -2 -209q-1 -22 -13 -37.5t-33 -25.5v-9q70 5 97 5q20 0 39 -1t61 -4h6v9q-45 20 -47 67q-7 121 -7 207v2q59 2 178 2q113 0 172 -2v-3q0 -140 -2 -210
q-3 -43 -46 -62v-10q28 3 51.5 4t46.5 1z" />
    <glyph glyph-name="i" unicode="i" horiz-adv-x="240" 
d="M118 4q18 0 36.5 -1t57.5 -3q3 0 12 -1v9q-45 20 -48 67q-6 138 -6 207v83q0 89 3 129q3 28 12.5 49.5t31.5 31.5v8q-17 -1 -52 -3q-32 -2 -48 -2q-20 0 -43 1.5t-58 4.5v-9q26 -15 35 -33.5t11 -45.5q3 -58 5 -113.5t2 -102.5q0 -139 -2 -209q-1 -22 -13 -37.5
t-33 -25.5v-9q35 3 56.5 4t40.5 1z" />
    <glyph glyph-name="j" unicode="j" horiz-adv-x="323" 
d="M156 501q3 -50 4.5 -106t1.5 -109v-57q0 -75 -5.5 -132t-23.5 -96q-14 -35 -35.5 -49.5t-66.5 -29.5q-10 -3 -12.5 -5t-2.5 -4q0 -4 12 -7t20 -3q22 0 41 5.5t41 15.5q36 13 63.5 32t41.5 45q20 38 25.5 88t5.5 136v176q0 66 2 97q2 30 10 52t29 32v8q-22 -1 -56 -4
q-27 -2 -41 -2q-16 0 -43.5 1.5t-69.5 4.5v-9q56 -33 59 -80z" />
    <glyph glyph-name="k" unicode="k" horiz-adv-x="669" 
d="M118 5q25 0 49.5 -1t56.5 -4v10q-45 18 -48 66q-6 120 -6 182q3 2 12 12l7 7q34 -31 105 -111l30 -34q7 -7 25 -28q24 -27 41.5 -44t40.5 -32.5t52 -24t66 -8.5q38 0 71 10.5t33 15.5q0 3 -4 5.5t-19 2.5q-17 0 -28 -3q-4 -2 -7 -2q-35 0 -74.5 34.5t-108.5 109.5v0
l-45 48q-78 82 -112 124q19 17 67 63q69 64 101 92q36 30 68 51t66 32l9 9q-15 -1 -59 -3q-35 -2 -49 -2q-19 0 -40 1.5t-50 3.5l-9 -9q4 -8 4 -20q0 -15 -8.5 -32t-20.5 -31q-36 -40 -77.5 -81t-86.5 -81q0 54 0.5 92t2.5 70q3 28 12.5 49.5t31.5 31.5v8q-29 -1 -41 -2
q-42 -2 -59 -2q-28 0 -101 5v-8q26 -15 35 -34t11 -45q3 -59 5 -114.5t2 -102.5q0 -139 -2 -209q-1 -22 -13 -37t-33 -25v-10q53 5 97 5z" />
    <glyph glyph-name="l" unicode="l" horiz-adv-x="504" 
d="M124 4q29 0 76 -2q35 -2 54.5 -2.5t46.5 -0.5q28 0 79 3l25 2q20 1 31 10t15 20q4 15 21 48q16 31 16 40q0 4 -3.5 8t-17.5 4q-10 0 -18 -7.5t-21 -23.5q-20 -27 -35 -37q-23 -17 -53.5 -24.5t-60.5 -7.5q-44 0 -69.5 13t-27.5 48q-3 55 -4.5 97t-1.5 91v83q0 88 2 128
q4 29 13.5 50.5t30.5 30.5v9q-21 -1 -50 -3q-35 -2 -50 -2q-19 0 -42.5 1.5t-50.5 2.5q-4 1 -8 1v-8q27 -15 36 -34.5t11 -45.5q3 -63 4.5 -116.5t1.5 -98.5v-99t-2 -88q-1 -22 -19 -49t-37 -35l1 -12l20 1q63 5 87 5z" />
    <glyph glyph-name="m" unicode="m" horiz-adv-x="871" 
d="M715 496v4q-1 3 -1 5q0 20 13 40.5t34 30.5v8l-36 -2q-28 -1 -41.5 -1.5t-30.5 -0.5l-40 -83l-171 -352l-229 435q-30 0 -52 1t-55 3v-8q48 -30 48 -71l-63 -408q-5 -33 -21.5 -57t-43.5 -32l-10 -11q32 4 51.5 5.5t39.5 1.5q24 0 52 -1.5t56 -5.5l-6 12q-42 15 -42 57
q0 11 1 14l42 285q125 -224 148 -267q26 -47 36 -64.5t15 -25.5q4 -6 9 -9t16 -3q8 0 14 3.5t7 6.5l171 357l48 -310v-3q1 -1 1 -2q0 -10 -5.5 -15.5t-14.5 -10.5q-14 -8 -14 -15v-10q34 5 59.5 7t49.5 2q23 0 47 -2t57 -8v12q-29 10 -46.5 27t-22.5 45z" />
    <glyph glyph-name="n" unicode="n" horiz-adv-x="680" 
d="M495 587v-9q25 -15 32.5 -34t8.5 -46q4 -50 5.5 -105t1.5 -110v-87v-44l-419 430q-24 0 -46.5 1.5t-59.5 5.5h-2l5 -10q24 -15 35 -33.5t13 -41.5v-5q1 -23 1 -71v-75q-1 -61 -1 -71q0 -140 -2 -209q-1 -22 -13 -37.5t-33 -25.5v-9q40 3 49 3.5t22 0.5q24 0 49 -1t57 -4
v10q-45 17 -48 66q-6 104 -6 208v94v50l416 -419q7 -8 17.5 -15t18.5 -7q23 0 23 23q0 16 -1 27q-2 23 -2 79q0 26 1 93q1 49 1 75v83q0 88 3 128q2 27 12 49t32 32v8q-21 -1 -39 -2q-46 -2 -61 -2q-7 0 -25 2q-24 4 -45 5z" />
    <glyph glyph-name="o" unicode="o" horiz-adv-x="733" 
d="M366 584q-71 0 -135 -23t-112.5 -64.5t-75.5 -95.5t-27 -113t27 -112.5t75.5 -95t112.5 -64.5t135 -23q72 0 136 22t112 62.5t75 95t27 117.5q0 60 -23 113.5t-68.5 94t-111 63.5t-147.5 23zM366 543q106 0 173.5 -74.5t67.5 -204.5q0 -106 -67.5 -168t-173.5 -62
q-49 0 -92.5 22t-75 60t-49.5 87.5t-18 103.5q0 53 17.5 96.5t49 75t74.5 48t94 16.5z" />
    <glyph glyph-name="p" unicode="p" horiz-adv-x="500" 
d="M122 574q-37 0 -105 6v-11q29 -13 39 -30.5t12 -42.5q3 -64 4.5 -118t1.5 -98q0 -139 -2 -209q-1 -21 -16 -35.5t-40 -26.5v-10q72 5 108 5q19 0 44 -1.5t53 -2.5q4 -1 9 -1v9q-26 11 -36 24t-12 43q-6 73 -6 185q14 -4 30 -5.5t32 -1.5q46 0 84 5.5t69 24.5q41 25 67 63
t26 76q0 37 -21.5 72t-64.5 58q-24 12 -61.5 20t-66.5 8q-24 0 -72 -3q-50 -3 -76 -3zM178 493q1 7 2 20q1 20 4 27q23 3 43 3q55 0 92 -21q24 -14 39.5 -40.5t15.5 -54.5q0 -35 -7.5 -63.5t-24.5 -44.5q-22 -20 -50 -29.5t-57 -10.5q-6 0 -24 3q-23 5 -35 5v82q0 85 2 124z
" />
    <glyph glyph-name="q" unicode="q" horiz-adv-x="749" 
d="M377 582q-71 0 -137 -24t-116.5 -66.5t-79 -97t-28.5 -113.5q0 -61 27 -112.5t75 -88.5t111.5 -58.5t136.5 -25.5q52 -3 98 -19t109 -46q103 -48 187 -74t180 -26q64 0 129 22t113 58q13 9 14 13l-1 1q-8 4 -17 4q-7 0 -13.5 -2.5t-7.5 -3.5q-30 -21 -58.5 -29.5
t-64.5 -8.5q-88 0 -171.5 20.5t-206.5 62.5q-97 32 -149 47q101 31 162.5 103.5t61.5 168.5q0 58 -24 111t-70 94.5t-112.5 65.5t-147.5 24zM131 299q0 108 67 174.5t177 66.5q104 0 174 -68.5t70 -193.5q0 -113 -64.5 -177t-171.5 -64q-54 0 -100.5 19.5t-80.5 55
t-52.5 83.5t-18.5 104z" />
    <glyph glyph-name="r" unicode="r" horiz-adv-x="710" 
d="M122 573q-38 0 -104 6v-11q29 -12 38.5 -29.5t11.5 -43.5q3 -64 4.5 -117.5t1.5 -98.5q0 -140 -2 -210q-1 -21 -16.5 -36t-39.5 -25v-10q72 5 108 5q18 0 36.5 -1t57.5 -3q3 0 12 -1v10q-25 9 -35.5 22.5t-12.5 43.5q-6 90 -6 182q26 3 43 3h32q29 -28 81 -98
q34 -45 58 -73.5t55.5 -54t71 -40.5t86.5 -15q11 0 26 2.5t29.5 6.5t24.5 9.5t10 11.5q-2 2 -8 4.5t-13 2.5q-10 0 -23 -1q-10 -1 -14 -1q-28 0 -58 18t-58 47.5t-53 61.5t-59 81q-24 34 -37 51q14 4 30 13q0 1 1 1q40 24 62 60t22 75q0 37 -21 72.5t-64 58.5
q-22 13 -60.5 20.5t-69.5 7.5q-24 0 -72 -3q-49 -4 -76 -4zM179 492q1 8 1 21q1 19 4 27q30 2 43 2q32 0 54 -3t40 -14q24 -14 39 -42.5t15 -56.5q0 -69 -30 -98.5t-110 -29.5h-23q-22 -1 -36 -1v77q0 81 3 118z" />
    <glyph glyph-name="s" unicode="s" horiz-adv-x="429" 
d="M190 -5q107 0 168 53q27 23 40.5 53t13.5 61q-1 29 -14 54t-34.5 46t-45 37t-60.5 40q-64 39 -95 67.5t-31 65.5q0 30 26.5 52.5t57.5 22.5q25 0 51 -7.5t48 -25.5q6 -4 17 -22q12 -17 20.5 -26t20.5 -9q11 0 15.5 5.5t4.5 9.5q0 15 -3 47q-4 33 -4 51q0 3 -4.5 6.5
t-15.5 3.5q-13 0 -21 -2t-14 -5q-2 -1 -3 -1q-13 0 -43 5q-39 7 -60 7q-46 0 -82 -13.5t-59 -35t-34 -47.5t-11 -53t12 -50t32 -41.5t42 -33.5t58 -36q66 -39 99 -69.5t33 -72.5q0 -47 -35 -72.5t-75 -25.5q-25 0 -58.5 13.5t-54.5 35.5q-9 9 -20 33q-8 15 -13 22t-13 7
q-16 0 -23 -9t-7 -18q0 -12 2 -25.5t4 -23.5l1 -5q0 -20 6.5 -30.5t28.5 -15.5l16 -4q37 -10 61 -14.5t55 -4.5z" />
    <glyph glyph-name="t" unicode="t" horiz-adv-x="638" 
d="M622 592h-27q-8 -2 -17 -5q-22 -7 -34 -7l-48 -1q-108 -4 -154 -4q-132 0 -198 1q-16 1 -22.5 3t-14.5 10h-33q-5 -16 -19 -39l-6 -9q-4 -9 -18 -26t-15 -23q0 -1 7 -4.5t15 -3.5q10 0 18 4.5t17 11.5q4 3 6 4q27 19 51 24q51 10 139 10l1 -35q2 -43 2.5 -96.5
t0.5 -127.5q0 -139 -3 -209q-1 -22 -13 -37t-33 -25v-10h7q46 4 59 4.5t32 0.5q18 0 36.5 -1t57.5 -3q3 0 12 -1v10q-45 18 -48 66q-6 105 -6 207v46q-1 28 -1 51q0 66 4 115l4 45h63h62q8 -1 15 -5.5t9 -14.5q0 -2 1 -5q1 -13 5 -20t16 -7q6 0 15 3t10 7q4 16 24 50
q19 33 21 46z" />
    <glyph glyph-name="u" unicode="u" 
d="M311 -8q60 0 102.5 7t75.5 29.5t52 69t19 122.5q0 15 1 31v30q0 69 0.5 118.5t3.5 93.5q2 37 10.5 53.5t32.5 27.5v8q-12 0 -39 -2q-43 -2 -61 -2q-10 0 -39 2q-14 1 -38 2v-9q32 -15 41.5 -30.5t10.5 -48.5q1 -28 1 -86v-129v-34q0 -28 -1 -48q-2 -54 -12.5 -86.5
t-30.5 -49.5t-48.5 -22.5t-74.5 -5.5q-32 0 -56 5t-43 20t-31 45t-14 78q-2 36 -2.5 57.5t-0.5 42.5v83q0 88 4 128q2 28 11.5 50t31.5 31v9q-17 -1 -50 -3q-35 -2 -50 -2q-28 0 -101 5v-8q27 -15 36 -34.5t11 -45.5q0 -4 1 -30v-33q0 -27 -1 -79q-1 -51 -1 -76q0 -12 1 -35
q0 -34 1 -73q1 -57 24.5 -93t59.5 -53.5t76.5 -23.5t86.5 -6z" />
    <glyph glyph-name="v" unicode="v" horiz-adv-x="726" 
d="M202 275q9 -18 36 -71q41 -79 63 -123.5t36 -77.5q2 -4 9.5 -8.5t16.5 -4.5q10 0 17.5 4t7.5 6q26 58 47.5 102t47.5 96q30 61 39 81l22 48q26 57 43 93.5t35 70.5q19 31 38 51.5t45 30.5l5 9q-17 -1 -54 -3q-35 -2 -51 -2q-31 0 -94 5l-6 -11q22 -3 30 -12.5t8 -25.5
q0 -22 -11 -44q-11 -28 -13 -33q-25 -61 -45.5 -110t-37.5 -86q-11 -23 -40 -86q-9 -20 -18 -39q-49 98 -71 146l-12 26q-31 68 -49 107t-34 78q-8 18 -8 42q0 28 17 36l-5 10q-15 -1 -29 -1q-48 -3 -67 -3q-21 0 -68 4q-10 0 -36 2l2 -9q32 -15 45.5 -31t27.5 -43l2 -5
q31 -58 59 -113.5t50 -105.5z" />
    <glyph glyph-name="w" unicode="w" horiz-adv-x="975" 
d="M854 580q-30 0 -97 5l-6 -11q24 -4 32.5 -13.5t8.5 -24.5q0 -22 -11 -44q-11 -25 -43 -101q-37 -90 -56 -130q-13 -25 -38 -79q-12 -27 -21 -46q-37 74 -72 147l-12 21l19 40q48 102 75 150q15 28 35 50t47 32l5 9q-18 -1 -55 -3q-35 -2 -51 -2q-36 0 -96 6l-6 -11
q23 -4 31.5 -13.5t8.5 -25.5t-11 -42v-1q-9 -20 -27 -64l-15 -37q-22 48 -45 104q-8 20 -8 40q0 27 17 37l-5 9q-64 -3 -99 -3q-21 0 -68 4q-10 0 -36 2l3 -10q30 -13 43 -27.5t27 -39.5q2 -3 6 -11l5 -9q36 -69 60.5 -117.5t45.5 -94.5v-1q1 -1 2 -3q-3 -7 -4 -10
q-5 -10 -29 -63q-25 -52 -30 -63q-49 98 -73 148q-21 42 -44 93t-52 119q-9 17 -9 41q0 28 18 37l-5 9q-64 -3 -99 -3q-20 0 -43.5 1.5t-60.5 4.5l2 -10q32 -14 46 -30t27 -42l3 -6l22 -42q30 -58 50.5 -99t39.5 -80q11 -23 48 -93q29 -56 52.5 -103t36.5 -77q3 -4 9.5 -8
t16.5 -4q9 0 15 3t9 6q10 21 28 59q18 40 35 75.5t30 60.5q28 -52 54.5 -105.5t41.5 -86.5q2 -4 9 -8.5t16 -4.5q10 0 18 4t8 6q29 63 50 106.5t51 104.5q24 49 34 69q19 41 39 82t61 124l3 7q17 30 36.5 51t47.5 30l4 9q-22 -1 -40 -2q-49 -2 -65 -2z" />
    <glyph glyph-name="x" unicode="x" horiz-adv-x="693" 
d="M568 580q-39 0 -102 6v-8q9 -12 9 -25t-6.5 -26t-16.5 -27q-9 -12 -35 -49q-31 -43 -51 -69q-36 50 -75 114q-2 3 -8 14q-11 17 -16.5 28t-5.5 21q0 11 8 17l4 8q-19 -1 -51 -3q-37 -2 -53 -2q-19 0 -41 1t-57 4h-9l7 -9q33 -13 51.5 -30.5t38.5 -45.5q3 -4 7 -9
q19 -25 72 -96q50 -65 67 -89q-6 -7 -16 -21q-34 -44 -113 -142q-38 -47 -54 -67q-37 -43 -97 -63l-9 -13q10 1 17 2q65 5 87 5q26 0 98 -6l10 -1v9q-19 10 -19 33q1 12 12 34q25 41 56 84.5t67 88.5q17 -26 41 -64q47 -76 73 -114q8 -12 13 -23.5t5 -20.5q0 -11 -8 -18v-9
q51 5 100 5q24 0 50 -1t59 -4l-8 11q-28 9 -48.5 26.5t-39.5 43.5q-47 62 -139 193l-8 12q-6 7 -18 24q-7 11 -12 17q36 44 114 137l28 33q23 26 54.5 47.5t64.5 31.5l8 10q-20 -1 -57 -3t-48 -2z" />
    <glyph glyph-name="y" unicode="y" horiz-adv-x="665" 
d="M551 578q-17 0 -47 3q-26 2 -44 3l2 -9q12 -11 12 -28q0 -14 -10.5 -32.5t-27.5 -41.5l-2 -3q-45 -65 -98 -128q-21 27 -60 89q-17 27 -28 43q-3 5 -10 16q-13 19 -19.5 32.5t-6.5 25.5q0 6 5 14.5t10 12.5l5 9q-18 -1 -50 -4q-38 -3 -54 -3q-22 0 -47.5 1.5t-64.5 5.5
l7 -11q32 -14 50 -31t40 -45q9 -12 15 -19q28 -36 81 -119q42 -64 65 -97q0 -128 -1 -192q-1 -22 -13 -37t-33 -25v-10q35 3 56.5 4t39.5 1q19 0 37.5 -1t57.5 -3q4 0 12 -1v10q-46 18 -48 66q-6 80 -6 157q0 36 1 54q38 50 78.5 103t72.5 94q26 34 51.5 59t55.5 36l14 10
q-34 -2 -67 -6q-21 -3 -31 -3z" />
    <glyph glyph-name="z" unicode="z" horiz-adv-x="712" 
d="M325 2q15 0 42 -0.5t86 -1.5q52 -1 82.5 -1.5t45.5 -0.5q35 0 49.5 12t20.5 26q4 17 28 47q18 22 18 30q0 2 -6 5.5t-17 3.5q-14 0 -36 -20q-19 -16 -33 -24q-19 -11 -55.5 -18t-78 -11t-76 -5.5t-66.5 -2.5h-7l-21 -1q-41 -1 -55 -1q-33 0 -45 2.5t-12 7.5q0 3 1 6
l479 504l2 2q2 4 2 5q0 3 -6 7t-18 4t-133 1q-125 1 -141 1q-26 0 -113 1q-97 2 -140 2q-31 0 -41 -5.5t-10 -15.5q0 -17 -5 -46q-4 -21 -4 -30q0 -3 6 -10t17 -7q9 0 13.5 4.5t9.5 13.5q5 11 10.5 18t17.5 13q26 12 78 17.5t137 5.5h50q77 0 110 -1q-100 -107 -176 -188.5
t-99 -106t-81.5 -86.5t-83.5 -88q-38 -40 -46.5 -49.5t-8.5 -10.5q0 -7 5.5 -9.5t14.5 -2.5q3 0 9 1h2q114 0 203 2q27 0 75 1z" />
    <glyph glyph-name="quoteleft" unicode="&#x2018;" horiz-adv-x="199" 
d="M81 830q-18 0 -30 -9.5t-19 -24t-9.5 -30.5t-2.5 -29q0 -42 11.5 -63t45.5 -41l42 24q-17 12 -17 28v6q1 6 1 8h7q34 0 51.5 20.5t17.5 46.5q0 12 -9 23.5t-24 20.5t-32 14.5t-33 5.5z" />
    <glyph glyph-name="quoteright" unicode="&#x2019;" horiz-adv-x="199" 
d="M118 830q-15 0 -32.5 -5.5t-32.5 -14.5t-24 -20.5t-9 -23.5q0 -26 17.5 -46.5t51.5 -20.5h7q0 -2 1 -8v-6q0 -16 -17 -28l42 -24q34 20 45.5 41t11.5 63q0 13 -2.5 29t-9.5 30.5t-19 24t-30 9.5z" />
    <glyph glyph-name="quotedblleft" unicode="&#x201c;" horiz-adv-x="346" 
d="M228 829q-21 0 -34 -13t-20 -34q-10 19 -38.5 33.5t-54.5 14.5q-18 0 -30.5 -9.5t-19 -24t-9 -30t-2.5 -29.5q0 -43 11 -63.5t46 -40.5l42 24q-17 12 -17 28v6q1 6 1 8h7q40 0 57 28q1 -36 13 -55.5t44 -39.5l42 24q-17 12 -17 28v6q1 6 1 8h8q33 0 50.5 20.5t17.5 46.5
q0 12 -9 23.5t-24 20.5t-32 14.5t-33 5.5z" />
    <glyph glyph-name="quotedblright" unicode="&#x201d;" horiz-adv-x="349" 
d="M268 829q-27 0 -56 -16t-38 -35q-6 23 -19.5 37.5t-36.5 14.5q-15 0 -32.5 -5.5t-32.5 -14.5t-24 -20.5t-9 -23.5q0 -26 17.5 -46.5t50.5 -20.5h8q0 -2 1 -8v-6q0 -16 -17 -28l42 -24q33 20 44.5 39.5t12.5 57.5q8 -15 23 -23.5t37 -8.5h7q0 -2 1 -8v-6q0 -16 -17 -28
l42 -24q35 20 46 40.5t11 63.5q0 13 -2.5 29t-9.5 30.5t-19 24t-30 9.5z" />
    <glyph glyph-name="sterling" unicode="&#xa3;" horiz-adv-x="655" 
d="M157 8h89q48 -1 110 -1h149q44 0 58 11t19 30l1 2q6 23 31 66q21 37 21 49q0 3 -8 8.5t-20 5.5t-24 -11t-32 -34q-27 -32 -42 -44q-27 -22 -55 -28t-71 -6q-29 0 -54 3t-47.5 12t-37 25.5t-15.5 41.5q-4 83 -6 139.5t-2 126.5q97 0 142 -4q35 -3 60 -14t40 -40h43
q-2 32 -2 42.5v37.5q0 25 4 58q2 17 3 31h-42q-23 -35 -44.5 -45.5t-53.5 -11.5q-15 -1 -45 -1q-33 0 -105 2q1 11 1 34q0 24 -1 63q-2 44 -2 60q0 39 4.5 67.5t16.5 50.5t35 34.5t60 12.5q70 0 103 -13t49 -37q1 -1 4 -6q5 -11 11.5 -17t21.5 -6q12 0 18.5 5t6.5 8
q0 13 -3 36q-5 31 -5 56q0 9 -12 14.5t-30 8t-35 3t-39 0.5q-31 0 -105 -5q-10 -1 -29 -2q-64 -4 -105 -19.5t-63 -41.5t-30.5 -59.5t-8.5 -79.5q0 -31 5 -99q6 -81 6 -124v-140.5t-2 -125.5q-1 -31 -25 -68q-11 -17 -23.5 -29.5t-24.5 -19.5v-22q11 1 16 1q46 5 73.5 7
t47.5 2z" />
  </font>
</defs>
</svg>
